<svg width="460" height="120" viewBox="0 0 460 120" fill="none" xmlns="http://www.w3.org/2000/svg">
<path d="M83 47.085V30.9H134.46V47.085H117.86V89H99.6V47.085H83ZM144.13 76.965C144.13 77.6843 144.296 78.293 144.628 78.791C145.015 79.2337 145.486 79.5933 146.039 79.87C146.648 80.0913 147.284 80.202 147.948 80.202C148.999 80.202 149.995 79.9807 150.936 79.538C151.932 79.04 152.734 78.293 153.343 77.297C154.007 76.2457 154.339 74.89 154.339 73.23L155.667 78.21C155.667 80.6447 155.058 82.7473 153.841 84.518C152.624 86.2333 150.964 87.5613 148.861 88.502C146.758 89.3873 144.379 89.83 141.723 89.83C139.233 89.83 136.937 89.3873 134.834 88.502C132.731 87.6167 131.044 86.2887 129.771 84.518C128.498 82.692 127.862 80.4787 127.862 77.878C127.862 74.226 129.135 71.3763 131.68 69.329C134.281 67.2263 138.016 66.175 142.885 66.175C144.877 66.175 146.786 66.341 148.612 66.673C150.493 67.005 152.153 67.4753 153.592 68.084C155.086 68.6373 156.248 69.3567 157.078 70.242V76.799C156.137 75.969 154.865 75.305 153.26 74.807C151.711 74.309 150.106 74.06 148.446 74.06C147.395 74.06 146.537 74.1707 145.873 74.392C145.264 74.6133 144.822 74.9453 144.545 75.388C144.268 75.7753 144.13 76.301 144.13 76.965ZM135.747 64.266L130.85 53.808C133.506 52.7567 136.494 51.7883 139.814 50.903C143.189 50.0177 146.703 49.575 150.355 49.575C153.952 49.575 157.216 50.073 160.149 51.069C163.082 52.065 165.406 53.5313 167.121 55.468C168.836 57.3493 169.694 59.6733 169.694 62.44V89H154.339V66.424C154.339 65.7047 154.228 65.0407 154.007 64.432C153.786 63.8233 153.426 63.2977 152.928 62.855C152.43 62.357 151.766 61.9973 150.936 61.776C150.106 61.4993 149.11 61.361 147.948 61.361C146.399 61.361 144.766 61.5547 143.051 61.942C141.336 62.274 139.814 62.689 138.486 63.187C137.158 63.6297 136.245 63.9893 135.747 64.266ZM180.336 73.811C182.992 75.6923 185.261 77.0757 187.142 77.961C189.079 78.791 190.628 79.3167 191.79 79.538C193.008 79.7593 193.838 79.87 194.28 79.87C195.166 79.87 195.774 79.704 196.106 79.372C196.494 78.9847 196.687 78.5143 196.687 77.961C196.687 77.463 196.521 77.0203 196.189 76.633C195.913 76.2457 195.221 75.8307 194.114 75.388C193.008 74.89 191.265 74.2813 188.885 73.562C187.004 72.9533 185.233 72.2063 183.573 71.321C181.969 70.3803 180.668 69.1077 179.672 67.503C178.676 65.8983 178.178 63.8233 178.178 61.278C178.178 58.8987 178.815 56.879 180.087 55.219C181.36 53.5037 183.131 52.2033 185.399 51.318C187.723 50.4327 190.462 49.99 193.616 49.99C195.94 49.99 198.098 50.2113 200.09 50.654C202.082 51.0413 204.019 51.567 205.9 52.231C207.782 52.895 209.663 53.6697 211.544 54.555L207.56 65.594C205.679 63.9893 203.549 62.7167 201.169 61.776C198.845 60.78 196.909 60.282 195.359 60.282C194.363 60.282 193.699 60.448 193.367 60.78C193.035 61.112 192.869 61.4717 192.869 61.859C192.869 62.5783 193.174 63.1593 193.782 63.602C194.446 63.9893 195.442 64.3767 196.77 64.764C198.154 65.1513 199.952 65.76 202.165 66.59C203.991 67.254 205.707 68.0287 207.311 68.914C208.916 69.7993 210.216 70.9613 211.212 72.4C212.208 73.8387 212.706 75.7753 212.706 78.21C212.706 82.7473 211.406 86.0397 208.805 88.087C206.205 90.079 202.442 91.075 197.517 91.075C194.64 91.075 191.929 90.826 189.383 90.328C186.838 89.8853 184.403 89.2213 182.079 88.336C179.755 87.4507 177.431 86.3993 175.107 85.182L180.336 73.811ZM218.54 24.26H233.895V89H218.54V24.26ZM247.673 50.82H266.68L250.495 66.59L268.34 89H249.665L231.488 66.59L247.673 50.82ZM278.894 67.005V50.82H325.374V67.005H278.894ZM314.003 30.9H332.263V89H314.003V30.9ZM274.993 30.9H293.253V89H274.993V30.9ZM340.984 37.374C340.984 34.9393 341.842 32.975 343.557 31.481C345.328 29.987 347.458 29.24 349.948 29.24C352.438 29.24 354.541 29.987 356.256 31.481C358.027 32.975 358.912 34.9393 358.912 37.374C358.912 39.8087 358.027 41.773 356.256 43.267C354.541 44.761 352.438 45.508 349.948 45.508C347.458 45.508 345.328 44.761 343.557 43.267C341.842 41.773 340.984 39.8087 340.984 37.374ZM342.146 50.82H357.667V89H342.146V50.82ZM361.413 50.82H378.428L385.898 68.499L393.368 50.82H410.383L385.898 94.395L361.413 50.82ZM435.153 89.83C430.173 89.83 425.884 89.0277 422.288 87.423C418.746 85.8183 416.007 83.5497 414.071 80.617C412.189 77.629 411.249 74.06 411.249 69.91C411.249 65.7047 412.162 62.1357 413.988 59.203C415.814 56.215 418.442 53.9463 421.873 52.397C425.303 50.7923 429.453 49.99 434.323 49.99C439.137 49.99 443.176 50.737 446.441 52.231C449.761 53.6697 452.251 55.8277 453.911 58.705C455.626 61.527 456.484 65.013 456.484 69.163C456.484 69.8823 456.484 70.6017 456.484 71.321C456.484 71.985 456.428 72.6213 456.318 73.23H420.047V65.428H441.295L438.141 69.246C438.473 68.748 438.749 68.2223 438.971 67.669C439.192 67.1157 439.303 66.6453 439.303 66.258C439.303 64.93 439.081 63.7957 438.639 62.855C438.196 61.9143 437.56 61.195 436.73 60.697C435.955 60.199 435.014 59.95 433.908 59.95C432.414 59.95 431.196 60.3097 430.256 61.029C429.315 61.693 428.623 62.772 428.181 64.266C427.738 65.7047 427.517 67.586 427.517 69.91C427.461 71.8467 427.683 73.5067 428.181 74.89C428.734 76.218 429.509 77.2417 430.505 77.961C431.556 78.6803 432.829 79.04 434.323 79.04C436.315 79.04 437.975 78.7357 439.303 78.127C440.631 77.463 441.627 76.5223 442.291 75.305L457.065 77.629C455.017 81.7237 452.168 84.7947 448.516 86.842C444.919 88.834 440.465 89.83 435.153 89.83Z" fill="#F95B3D"/>
<path d="M65.0582 60.976L65.0526 60.9853L64.9434 60.7757L64.8568 60.6095L65.0582 60.976ZM48.6076 69.6347L43.3275 60.531L48.6728 52.0002L59.243 52.0002L63.9329 61.0005L59.1873 69.6347L48.6076 69.6347ZM40.4178 80.9844L29.3167 80.7554L23.9439 71.0209L29.6936 61.5125L40.8171 61.7369L46.1684 71.4745L40.4178 80.9844ZM64.5353 82.5808L58.7847 92.0907L47.6838 91.8618L42.3247 82.1374L48.0753 72.6275L59.1841 72.8435L64.5353 82.5808ZM49.0714 29.4669L60.1949 29.6913L65.5463 39.4289L59.7957 48.9388L48.6945 48.7099L43.3211 38.9764L49.0714 29.4669ZM24.4658 49.4177L30.2166 39.9075L41.3267 40.124L46.6923 49.8705L40.9417 59.3803L29.8182 59.1559L24.4658 49.4177ZM5.57729 59.9164L11.3279 50.4065L22.4367 50.6225L27.7889 60.3605L22.0384 69.8703L10.9364 69.6408L5.57729 59.9164Z" fill="#06020E" stroke="#4654A3"/>
<path d="M29.3553 61.514L40.4643 61.73L45.8299 71.4765L40.0793 80.9863L28.9559 80.7619L23.6045 71.0243L29.3553 61.514Z" fill="#4654A3" stroke="#4654A3"/>
</svg>
